<svg xmlns="http://www.w3.org/2000/svg" xmlns:xlink="http://www.w3.org/1999/xlink" width="500" zoomAndPan="magnify" viewBox="0 0 375 374.999991" height="500" preserveAspectRatio="xMidYMid meet" version="1.0"><defs><clipPath id="81fab136b7"><path d="M 0 4 L 375 4 L 375 316.707031 L 0 316.707031 Z M 0 4 " clip-rule="nonzero"/></clipPath></defs><g clip-path="url(#81fab136b7)"><path fill="#0e0f10" d="M 373.484375 17.3125 L 371.859375 4.003906 L 358.839844 7.101562 C 338.394531 11.960938 319.722656 19.839844 303.34375 30.507812 C 290.183594 39.050781 278.574219 49.347656 268.519531 61.390625 C 262.015625 69.167969 256.378906 77.53125 251.605469 86.476562 C 228.5625 73.386719 202.738281 71.769531 191.4375 71.769531 C 189.644531 71.769531 188.300781 71.8125 187.515625 71.847656 C 186.730469 71.882812 185.410156 71.769531 183.582031 71.769531 C 172.292969 71.769531 146.4375 73.386719 123.414062 86.476562 C 118.636719 77.53125 112.996094 69.167969 106.488281 61.390625 C 96.429688 49.347656 84.816406 39.054688 71.65625 30.507812 C 55.261719 19.839844 36.589844 11.960938 16.121094 7.101562 L 3.132812 4.003906 L 1.507812 17.3125 C 1.183594 19.953125 -6.160156 82.660156 14.824219 151.558594 L 17.835938 161.464844 L 17.792969 161.464844 L 18.019531 162.050781 L 18.453125 163.453125 L 18.558594 163.410156 L 21.945312 172.136719 C 27.898438 187.609375 35.28125 202.363281 44.097656 216.402344 L 46.902344 220.886719 L 59.382812 237.828125 C 90.222656 276.121094 132.335938 302.378906 184.5 315.875 L 187.5 316.652344 L 190.5 315.875 C 242.65625 302.378906 284.75 276.128906 315.617188 237.835938 L 328.089844 220.894531 L 330.929688 216.410156 C 339.742188 202.371094 347.125 187.613281 353.078125 172.144531 L 356.460938 163.417969 L 356.566406 163.453125 L 356.996094 162.050781 L 357.234375 161.449219 L 357.183594 161.449219 L 360.199219 151.546875 C 381.160156 82.625 373.808594 19.910156 373.484375 17.3125 Z M 373.484375 17.3125 " fill-opacity="1" fill-rule="nonzero"/></g><path fill="#0063ca" d="M 312.628906 116.46875 C 317.054688 84.3125 342.726562 57.136719 343.222656 56.613281 C 342.277344 57.269531 276.640625 103.449219 288.15625 127.417969 C 297.617188 147.121094 330.242188 162.746094 341.925781 167.832031 C 336.253906 182.582031 329.214844 196.648438 320.808594 210.03125 C 302.585938 209.734375 273.152344 210.582031 256.101562 218.015625 C 226.03125 231.113281 217.511719 258.539062 217.511719 258.539062 C 243.484375 227.09375 286.671875 228.003906 306.296875 230.34375 C 280.175781 262.75 242.285156 290.128906 187.5 304.3125 C 132.707031 290.128906 94.820312 262.75 68.683594 230.34375 C 88.308594 228.003906 131.496094 227.09375 157.46875 258.539062 C 157.46875 258.539062 148.945312 231.113281 118.878906 218.015625 C 101.828125 210.582031 72.363281 209.734375 54.167969 210.03125 C 45.773438 196.644531 38.742188 182.578125 33.074219 167.832031 C 37.1875 166.03125 43.914062 162.925781 51.296875 158.796875 C 64.863281 151.210938 80.683594 140.171875 86.808594 127.421875 C 98.351562 103.460938 32.714844 57.269531 31.769531 56.613281 C 32.273438 57.136719 57.941406 84.3125 62.363281 116.46875 C 64.296875 130.535156 46.753906 140.859375 26.238281 148.050781 C 5.773438 80.777344 13.378906 18.714844 13.378906 18.714844 C 97.117188 38.652344 118.382812 104.40625 118.382812 104.40625 C 146.296875 81.160156 187.5 83.816406 187.5 83.816406 C 187.5 83.816406 228.703125 81.160156 256.613281 104.40625 C 256.613281 104.40625 277.882812 38.652344 361.613281 18.734375 C 361.613281 18.734375 369.226562 80.777344 348.753906 148.050781 C 328.238281 140.859375 310.703125 130.535156 312.628906 116.46875 Z M 312.628906 116.46875 " fill-opacity="1" fill-rule="nonzero"/><path fill="#fb5d39" d="M 256.101562 218.015625 C 273.152344 210.582031 302.617188 209.734375 320.808594 210.03125 C 320.808594 210.03125 241.242188 189.621094 196.335938 255.921875 C 196.109375 256.300781 195.855469 256.660156 195.578125 257.007812 C 195.304688 257.351562 195.007812 257.679688 194.6875 257.988281 C 194.371094 258.296875 194.035156 258.582031 193.679688 258.847656 C 193.324219 259.109375 192.957031 259.351562 192.570312 259.566406 C 192.183594 259.785156 191.785156 259.976562 191.375 260.144531 C 190.964844 260.308594 190.546875 260.449219 190.121094 260.558594 C 189.691406 260.671875 189.257812 260.757812 188.820312 260.8125 C 188.378906 260.871094 187.9375 260.898438 187.496094 260.898438 C 187.054688 260.898438 186.613281 260.871094 186.175781 260.8125 C 185.734375 260.757812 185.300781 260.671875 184.875 260.558594 C 184.445312 260.449219 184.027344 260.308594 183.617188 260.144531 C 183.207031 259.976562 182.808594 259.785156 182.421875 259.566406 C 182.035156 259.351562 181.667969 259.109375 181.3125 258.847656 C 180.957031 258.582031 180.621094 258.296875 180.304688 257.988281 C 179.984375 257.679688 179.6875 257.351562 179.414062 257.007812 C 179.136719 256.660156 178.882812 256.300781 178.65625 255.921875 C 133.757812 189.613281 54.183594 210.03125 54.183594 210.03125 C 72.40625 209.734375 101.839844 210.582031 118.894531 218.015625 C 148.960938 231.113281 157.480469 258.539062 157.480469 258.539062 C 131.507812 227.09375 88.308594 228.003906 68.683594 230.34375 C 94.804688 262.75 132.691406 290.128906 187.484375 304.3125 C 242.285156 290.128906 280.175781 262.75 306.273438 230.34375 C 286.648438 228.003906 243.464844 227.09375 217.488281 258.539062 C 217.511719 258.539062 226.03125 231.113281 256.101562 218.015625 Z M 256.101562 218.015625 " fill-opacity="1" fill-rule="nonzero"/><path fill="#0e0f10" d="M 97.679688 197.421875 C 97.679688 197.421875 122.578125 196.792969 152.757812 222.097656 C 152.785156 222.097656 153.597656 170.429688 97.679688 197.421875 Z M 97.679688 197.421875 " fill-opacity="1" fill-rule="nonzero"/><path fill="#0e0f10" d="M 277.320312 197.421875 C 277.320312 197.421875 252.414062 196.792969 222.242188 222.097656 C 222.242188 222.097656 221.394531 170.429688 277.320312 197.421875 Z M 277.320312 197.421875 " fill-opacity="1" fill-rule="nonzero"/><path fill="#0e0f10" d="M 199.703125 253.582031 C 199.703125 254.382812 199.625 255.175781 199.46875 255.960938 C 199.3125 256.746094 199.078125 257.507812 198.773438 258.246094 C 198.464844 258.988281 198.089844 259.691406 197.644531 260.355469 C 197.199219 261.023438 196.695312 261.636719 196.128906 262.203125 C 195.5625 262.769531 194.945312 263.277344 194.277344 263.71875 C 193.613281 264.164062 192.910156 264.539062 192.167969 264.847656 C 191.429688 265.152344 190.667969 265.386719 189.878906 265.542969 C 189.09375 265.699219 188.300781 265.777344 187.5 265.777344 C 186.699219 265.777344 185.90625 265.699219 185.121094 265.542969 C 184.332031 265.386719 183.570312 265.152344 182.832031 264.847656 C 182.089844 264.539062 181.386719 264.164062 180.722656 263.71875 C 180.054688 263.277344 179.4375 262.769531 178.871094 262.203125 C 178.304688 261.636719 177.800781 261.023438 177.355469 260.355469 C 176.910156 259.691406 176.535156 258.988281 176.226562 258.246094 C 175.921875 257.507812 175.6875 256.746094 175.53125 255.960938 C 175.375 255.175781 175.296875 254.382812 175.296875 253.582031 C 175.296875 252.78125 175.375 251.988281 175.53125 251.203125 C 175.6875 250.417969 175.921875 249.65625 176.226562 248.914062 C 176.535156 248.175781 176.910156 247.472656 177.355469 246.808594 C 177.800781 246.140625 178.304688 245.523438 178.871094 244.957031 C 179.4375 244.394531 180.054688 243.886719 180.722656 243.441406 C 181.386719 242.996094 182.089844 242.621094 182.832031 242.316406 C 183.570312 242.007812 184.332031 241.777344 185.121094 241.621094 C 185.90625 241.464844 186.699219 241.386719 187.5 241.386719 C 188.300781 241.386719 189.09375 241.464844 189.878906 241.621094 C 190.667969 241.777344 191.429688 242.007812 192.167969 242.316406 C 192.910156 242.621094 193.613281 242.996094 194.277344 243.441406 C 194.945312 243.886719 195.5625 244.394531 196.128906 244.957031 C 196.695312 245.523438 197.199219 246.140625 197.644531 246.808594 C 198.089844 247.472656 198.464844 248.175781 198.773438 248.914062 C 199.078125 249.65625 199.3125 250.417969 199.46875 251.203125 C 199.625 251.988281 199.703125 252.78125 199.703125 253.582031 Z M 199.703125 253.582031 " fill-opacity="1" fill-rule="nonzero"/><path fill="#fb5d39" d="M 97.679688 118.277344 C 84.964844 148.050781 52.355469 158.472656 51.332031 158.796875 C 64.898438 151.210938 80.71875 140.171875 86.84375 127.421875 C 98.351562 103.460938 32.714844 57.269531 31.769531 56.613281 C 32.273438 57.136719 57.941406 84.3125 62.363281 116.46875 C 64.296875 130.535156 46.753906 140.859375 26.238281 148.050781 C 12.65625 87.730469 24.636719 44.390625 24.636719 44.390625 C 24.636719 44.390625 110.59375 88.054688 97.679688 118.277344 Z M 97.679688 118.277344 " fill-opacity="1" fill-rule="nonzero"/><path fill="#fb5d39" d="M 277.320312 118.277344 C 290.042969 148.050781 322.644531 158.472656 323.667969 158.789062 C 310.101562 151.203125 294.28125 140.164062 288.15625 127.417969 C 276.648438 103.460938 342.285156 57.269531 343.230469 56.613281 C 342.726562 57.136719 317.058594 84.3125 312.636719 116.46875 C 310.710938 130.535156 328.246094 140.859375 348.761719 148.050781 C 362.34375 87.730469 350.363281 44.390625 350.363281 44.390625 C 350.363281 44.390625 264.40625 88.054688 277.320312 118.277344 Z M 277.320312 118.277344 " fill-opacity="1" fill-rule="nonzero"/></svg>