<svg xmlns="http://www.w3.org/2000/svg" data-name="Layer 1" viewBox="0 0 24 24" id="tv"><rect width="23" height="16" x=".5" y="7" fill="#f59831" rx="1" ry="1"></rect><path fill="#fff" d="M2.5,22V8a1,1,0,0,1,1-1h-2a1,1,0,0,0-1,1V22a1,1,0,0,0,1,1h2A1,1,0,0,1,2.5,22Z"></path><rect width="14" height="12" x="2.5" y="9" fill="#54bbe8" rx="1" ry="1"></rect><circle cx="20" cy="10.5" r="1.5" fill="#e0e1ef"></circle><path fill="#e0e1ef" d="M15.5,5h0a2,2,0,0,1,2,2V7a0,0,0,0,1,0,0h-4a0,0,0,0,1,0,0V7A2,2,0,0,1,15.5,5Z"></path><path fill="#fff" d="M16.5,5.28a2,2,0,0,0-1-.28,2,2,0,0,0-2,2h2A2,2,0,0,1,16.5,5.28Z"></path><line x1="14.1" x2="11.5" y1="5.58" y2="1" fill="#8b8891"></line><line x1="19.5" x2="16.9" y1="1" y2="5.58" fill="#8b8891"></line><path d="M21.5,18.5h-3a.5.5,0,0,0,0,1h3a.5.5,0,0,0,0-1Zm0,2h-3a.5.5,0,0,0,0,1h3a.5.5,0,0,0,0-1Zm-6-12H3.5A1.5,1.5,0,0,0,2,10V20a1.5,1.5,0,0,0,1.5,1.5h12A1.5,1.5,0,0,0,17,20V10A1.5,1.5,0,0,0,15.5,8.5ZM16,20a.5.5,0,0,1-.5.5H3.5A.5.5,0,0,1,3,20V10a.5.5,0,0,1,.5-.5h12a.5.5,0,0,1,.5.5Zm5.5-3.5h-3a.5.5,0,0,0,0,1h3a.5.5,0,0,0,0-1ZM20,8.5a2,2,0,1,0,2,2A2,2,0,0,0,20,8.5Zm0,3a1,1,0,1,1,1-1A1,1,0,0,1,20,11.5Zm2.5-5H17.95a2.48,2.48,0,0,0-.44-1l2.43-4.28a.5.5,0,1,0-.87-.49L16.74,4.84a2.42,2.42,0,0,0-2.49,0L11.93.75a.5.5,0,1,0-.87.49l2.43,4.28a2.48,2.48,0,0,0-.44,1H1.5A1.5,1.5,0,0,0,0,8V22a1.5,1.5,0,0,0,1.5,1.5h21A1.5,1.5,0,0,0,24,22V8A1.5,1.5,0,0,0,22.5,6.5Zm-7-1a1.5,1.5,0,0,1,1.41,1H14.09A1.5,1.5,0,0,1,15.5,5.5ZM23,22a.5.5,0,0,1-.5.5H1.5A.5.5,0,0,1,1,22V8a.5.5,0,0,1,.5-.5h21A.5.5,0,0,1,23,8Zm-4-7.5a.43.43,0,0,0,.19,0,.42.42,0,0,0,.16-.11.48.48,0,0,0,0-.7.5.5,0,0,0-.7,0,.48.48,0,0,0,0,.7.36.36,0,0,0,.16.11A.4.4,0,0,0,19,14.5Zm2,0a.47.47,0,0,0,.35-.15.36.36,0,0,0,.11-.16.4.4,0,0,0,0-.19.47.47,0,0,0-.15-.35.5.5,0,0,0-.7,0,.47.47,0,0,0-.15.35.4.4,0,0,0,0,.19.35.35,0,0,0,.11.16A.45.45,0,0,0,21,14.5Z"></path></svg>